<?xml version="1.0" encoding="UTF-8"?>
<svg id="Layer_1" data-name="Layer 1" xmlns="http://www.w3.org/2000/svg" viewBox="0 0 80 80">
  <path d="M23.46,78.07c0,1.24-1,2.24-2.24,2.24h-9.53c-1.24,0-2.24-1-2.24-2.24v-39.95c0-1.24,1-2.24,2.24-2.24h9.53c1.24,0,2.24,1,2.24,2.24v39.95ZM16.45,32.11c-5,0-9.05-4.05-9.05-9.05s4.05-9.05,9.05-9.05,9.05,4.05,9.05,9.05-4.05,9.05-9.05,9.05ZM73.26,78.25c0,1.14-.92,2.06-2.06,2.06h-10.23c-1.14,0-2.06-.92-2.06-2.06v-18.74c0-2.8.82-12.25-7.31-12.25-6.3,0-7.58,6.47-7.84,9.38v21.61c0,1.14-.92,2.06-2.06,2.06h-9.89c-1.14,0-2.06-.92-2.06-2.06v-40.31c0-1.14.92-2.06,2.06-2.06h9.89c1.14,0,2.06.92,2.06,2.06v3.49c2.34-3.51,5.81-6.21,13.21-6.21,16.38,0,16.28,15.3,16.28,23.71v19.34h0Z"/>
</svg>