<svg width="582" height="479" viewBox="0 0 582 479" fill="none" xmlns="http://www.w3.org/2000/svg">
<path d="M298.478 0C306.377 2.28669 313.495 6.34037 318.291 13.1485C336.619 6.1065 353.017 19.3589 355.702 37.4186C367.408 40.2249 375.776 51.0607 374.707 63.2218C374.525 65.2486 372.804 69.3283 373.013 70.6535C373.195 71.7449 374.733 73.252 375.281 74.6552C377.705 81.0475 378.227 86.0627 375.229 92.429C374.342 94.3259 370.015 99.1072 369.937 99.549C369.806 100.251 370.458 101.55 370.432 102.563C370.328 109.891 369.415 116.439 364.462 122.234C360.056 127.405 352.991 128.392 349.237 134.499C347.673 137.045 347.151 140.138 345.378 142.502C338.418 151.779 314.381 154.585 303.457 156.534C305.595 160.198 305.908 162.329 310.627 162.147C322.176 161.731 349.471 155.989 359.326 150.168C368.268 144.893 369.963 137.799 376.975 131.589C392.696 117.687 428.151 112.931 449.216 104.434C476.068 93.5724 499.949 77.0199 525.784 66.0022C531.024 63.7675 544.868 57.2972 544.32 68.2109C543.851 77.5396 529.434 95.3394 521.77 100.666L510.585 107.267C516.66 106.201 522.5 104.148 528.6 103.109C534.075 102.173 550.316 99.6789 551.776 107.734C553.471 117.063 531.181 127.951 523.725 129.744C523.595 130.809 525.889 130.419 526.566 130.393C530.086 130.237 534.075 129.38 537.438 131.355C544.816 135.668 530.972 147.699 526.853 150.012C520.883 153.39 513.662 154.871 506.831 154.689C506.075 155.339 510.559 158.509 511.211 159.367C513.688 162.667 513.584 165.265 512.15 169.007C509.204 176.725 497.837 178.31 490.564 178.388C502.321 199.15 477.581 197.123 464.285 195.85C471.689 215.65 445.566 216.144 433.939 208.946C431.488 213.494 430.472 218.041 424.502 218.847C418.531 219.652 408.781 219.08 402.629 218.925C391.001 218.639 379.218 217.235 367.642 217.002C363.94 216.924 360.317 217.002 356.667 217.651L361.255 220.25C382.893 229.448 407.399 237.868 419.209 259.773C426.118 257.746 433.522 256.915 440.743 257.642C455.447 259.097 464.102 270.791 480.579 267.257C488.895 265.464 499.506 258.266 503.181 250.496C507.744 240.934 499.975 227.084 514.053 223.29C523.256 220.821 528.444 226.824 536.004 230.02C550.264 236.049 568.253 231.112 581.888 240.102C583.035 241.687 575.057 244.494 573.91 244.936C558.659 250.782 536.916 251.718 527.818 266.971C518.719 282.224 516.086 304.857 501.8 316.499C491.45 324.944 463.581 331.622 450.207 332.427C442.568 332.895 411.206 330.453 406.956 334.22C404.323 336.559 407.53 342.25 407.869 345.238C408.807 353.631 405.34 363.662 402.968 371.639C413.656 377.278 429.768 379.149 439.414 386.139C444.915 390.114 454.639 404.848 459.201 406.329C466.005 408.538 476.016 396.741 481.647 407.654C485.402 414.93 482.065 423.375 483.916 430.963C486.21 440.318 496.143 447.905 497.342 458.117C498.228 465.731 494.891 471.734 493.64 478.958C491.293 479.321 489.39 477.268 487.696 475.865C477.137 467.134 470.151 452.816 459.54 444.06C441.421 429.092 407.347 427.169 384.666 422.024C330.701 409.785 313.625 385.125 307.212 331.466C306.899 328.764 307.629 325.749 306.247 323.073C291.961 315.745 276.397 311.769 264.326 300.622C255.045 292.021 249.518 280.223 248.997 267.543L204.286 328.036C199.672 332.038 190.156 328.582 184.864 326.789C150.243 315.069 104.411 264.944 98.9365 228.461C97.3723 218.093 99.0669 204.685 109.495 199.54L102.717 193.537L100.735 186.469H67.9912C65.6448 192.316 62.36 197.565 56.8852 201.073C36.1594 214.351 13.6869 194.862 0 180.233V176.491C13.4783 162.017 35.9508 142.71 56.5203 155.391C62.3079 158.951 67.2351 165.967 68.1997 172.749H95.7299C91.3762 162.667 99.5361 157.08 108.869 159.029C94.4524 144.711 101.309 121.195 108.765 104.98C123.573 72.7583 154.805 43.4211 185.411 26.089C190.078 23.4386 199.098 17.462 204.026 21.4897L216.487 38.0422C219.459 30.1167 227.723 26.245 235.857 26.167C236.666 7.63962 255.984 -3.24814 271.756 7.37977L281.141 2.39063L288.441 0H298.452L298.478 0ZM256.557 163.394L255.358 158.067C243.183 157.236 222.979 150.636 219.824 137.357C219.094 134.317 219.459 130.549 218.886 127.691C218.234 124.391 214.584 119.272 214.688 116.387C214.845 112.386 220.632 109.943 220.867 105.006C221.076 101.004 218.495 98.3536 217.921 94.9756C216.487 86.2446 221.623 76.5521 221.388 67.8211L195.866 33.079C188.045 44.6684 179.285 55.5821 171.829 67.4314C154.284 95.2874 141.327 126.132 134.548 158.431C141.613 156.041 146.697 162.329 144.559 169.033C145.289 168.747 145.889 168.461 146.723 168.383C161.635 167.318 178.32 164.304 193.076 165.265C200.115 165.733 207.623 169.215 214.323 169.085C227.828 168.799 242.427 158.795 256.557 163.42V163.394ZM42.3902 169.761C38.5839 170.566 34.8298 175.166 33.2656 178.544C34.0738 182.337 44.7887 190.809 47.2393 185.82C49.5334 181.194 42.7812 179.531 43.1723 178.024C48.4906 175.763 49.9766 168.124 42.3641 169.735L42.3902 169.761ZM135.174 203.931C141.144 236.257 154.649 265.49 174.957 291.163C180.562 298.231 188.54 308.157 194.901 314.316C195.37 314.784 195.944 315.693 196.726 315.511L242.688 253.355C243.261 251.302 239.064 246.755 237.891 244.65C232.755 235.399 233.641 225.759 229.887 217.703C224.126 205.386 202.514 209.908 191.851 208.842C177.981 207.465 162.079 198.214 147.949 197.669C142.031 197.435 141.77 204.945 135.148 203.931H135.174Z" fill="#831721"/>
</svg>
